<?xml version="1.0" standalone="no"?>
<!DOCTYPE svg PUBLIC "-//W3C//DTD SVG 20010904//EN"
 "http://www.w3.org/TR/2001/REC-SVG-20010904/DTD/svg10.dtd">
<svg version="1.0" xmlns="http://www.w3.org/2000/svg"
 width="225.000000pt" height="225.000000pt" viewBox="0 0 225.000000 225.000000"
 preserveAspectRatio="xMidYMid meet">
<metadata>
Created by potrace 1.10, written by Peter Selinger 2001-2011
</metadata>
<g transform="translate(0.000000,225.000000) scale(0.100000,-0.100000)"
fill="#000000" stroke="none">
<path d="M1050 2238 c-41 -3 -94 -13 -118 -22 -146 -53 -276 -164 -334 -285
l-33 -70 -188 0 -189 -1 -30 -30 c-25 -26 -29 -36 -24 -63 12 -65 22 -67 285
-67 l237 0 2 -54 c3 -79 36 -174 82 -240 23 -32 40 -59 38 -61 -2 -1 -88 -51
-193 -111 -202 -115 -273 -171 -310 -244 -37 -74 -44 -108 -95 -522 -54 -434
-54 -438 3 -458 41 -14 43 -8 7 23 -16 15 -30 31 -30 35 0 21 101 807 106 830
12 49 52 116 91 154 21 20 121 85 223 144 102 58 193 113 203 122 25 22 21 40
-24 107 -43 65 -64 127 -75 220 -3 33 -11 66 -16 73 -8 9 -69 12 -244 12 -198
0 -235 2 -248 16 -9 8 -16 23 -16 33 0 37 18 41 210 41 213 0 195 -7 251 99
70 134 228 252 377 281 32 6 73 15 92 20 21 6 50 6 70 0 19 -5 61 -14 93 -20
142 -28 294 -140 367 -269 69 -121 44 -111 259 -111 192 0 211 -4 211 -40 0
-9 -8 -24 -18 -33 -16 -15 -49 -17 -249 -17 -172 0 -233 -3 -241 -12 -5 -7
-13 -38 -16 -68 -10 -89 -35 -161 -77 -226 -21 -33 -39 -67 -39 -76 0 -23 21
-38 220 -152 206 -118 265 -169 298 -258 16 -44 49 -258 78 -513 3 -22 14
-111 25 -198 11 -87 16 -163 12 -170 -4 -7 -18 -20 -31 -31 -29 -23 -24 -29
15 -16 57 20 57 24 3 456 -53 420 -59 452 -95 524 -37 73 -108 129 -310 244
-104 60 -191 110 -193 111 -2 2 15 29 38 61 47 67 79 161 81 239 l2 55 236 0
c247 1 255 2 279 47 18 34 14 52 -17 84 l-29 29 -189 1 -188 0 -35 72 c-60
122 -187 230 -332 283 -57 21 -175 31 -268 22z"/>
<path d="M990 2101 c-99 -32 -171 -82 -236 -164 -38 -47 -43 -81 -15 -97 27
-14 745 -14 772 0 28 16 23 41 -17 96 -37 50 -99 103 -158 135 -94 50 -243 63
-346 30z m312 -48 c82 -39 135 -80 177 -138 17 -24 31 -45 31 -47 0 -1 -173
-3 -385 -3 -212 0 -385 3 -385 6 0 11 59 83 88 107 97 83 184 114 312 109 82
-2 104 -7 162 -34z"/>
<path d="M802 1718 c-7 -7 -12 -39 -12 -73 0 -110 79 -228 192 -286 65 -34
185 -38 260 -9 123 46 218 175 218 296 0 52 -3 65 -19 74 -29 15 -623 14 -639
-2z m635 -74 c-11 -108 -77 -202 -179 -256 -62 -33 -204 -33 -266 0 -102 54
-168 148 -179 256 l-6 56 318 0 318 0 -6 -56z"/>
<path d="M874 1252 c-93 -46 -94 -49 -94 -187 0 -105 2 -124 18 -138 16 -15
54 -17 329 -17 288 0 311 1 326 18 14 15 17 41 17 139 0 136 -1 139 -95 186
l-50 24 -55 -19 c-77 -28 -215 -28 -291 -1 l-55 20 -50 -25z m251 -45 c63 0
107 6 145 20 l55 19 57 -30 58 -31 0 -122 0 -123 -315 0 -315 0 0 123 0 122
56 31 56 30 56 -20 c42 -14 81 -20 147 -19z"/>
<path d="M555 1069 c-178 -99 -187 -117 -230 -464 -18 -143 -36 -284 -39 -314
-3 -29 -8 -69 -12 -87 -4 -24 -1 -42 10 -59 16 -24 20 -25 125 -25 92 0 110 3
125 19 15 16 17 60 23 382 3 215 10 369 16 377 5 6 26 12 46 12 54 0 61 13 61
105 0 73 -9 105 -29 105 -4 0 -46 -23 -96 -51z m100 -54 l0 -75 -42 0 c-47 0
-78 -22 -88 -62 -3 -13 -4 -179 -3 -371 l3 -347 -112 0 c-62 0 -113 4 -113 8
0 34 82 666 91 699 17 62 68 115 167 172 48 28 89 51 92 51 3 0 5 -34 5 -75z"/>
<path d="M1582 1108 c-7 -7 -12 -43 -12 -93 0 -92 7 -105 61 -105 20 0 41 -6
46 -12 6 -8 13 -162 16 -377 6 -322 8 -366 23 -382 15 -16 33 -19 125 -19 97
0 109 2 119 19 16 31 12 99 -26 386 -19 149 -36 285 -38 303 -5 45 -49 132
-83 164 -25 24 -199 128 -213 128 -3 0 -11 -5 -18 -12z m109 -69 c103 -58 153
-111 168 -177 9 -38 91 -664 91 -693 0 -5 -51 -9 -112 -9 l-113 0 3 347 c1
192 0 358 -3 371 -10 40 -41 62 -87 62 l-43 0 0 75 c0 41 2 75 4 75 2 0 43
-23 92 -51z"/>
<path d="M670 800 c-19 -19 -20 -33 -20 -330 0 -295 1 -311 20 -330 18 -18 36
-19 454 -20 l435 0 20 22 c20 21 21 33 21 330 0 295 -1 309 -20 328 -19 19
-33 20 -455 20 -422 0 -436 -1 -455 -20z m900 -325 l0 -315 -445 0 -445 0 0
315 0 315 445 0 445 0 0 -315z"/>
<path d="M816 638 c-22 -30 -20 -54 5 -79 27 -27 66 -21 92 12 17 24 18 30 6
55 -19 40 -79 47 -103 12z m72 -36 c4 -28 -24 -40 -45 -19 -21 21 -9 49 19 45
15 -2 24 -11 26 -26z"/>
<path d="M1342 648 c-22 -28 -22 -55 -1 -81 25 -32 61 -35 89 -7 24 24 25 48
4 78 -17 25 -74 31 -92 10z m74 -33 c7 -18 -13 -45 -33 -45 -17 0 -27 24 -19
45 7 20 45 19 52 0z"/>
</g>
</svg>
